<svg width="193" height="193" xmlns="http://www.w3.org/2000/svg" xmlns:xlink="http://www.w3.org/1999/xlink" xml:space="preserve" overflow="hidden"><defs><clipPath id="clip0"><rect x="290" y="215" width="193" height="193"/></clipPath></defs><g clip-path="url(#clip0)" transform="translate(-290 -215)"><path d="M344.281 397.948 430.729 397.948C435.17 397.948 438.771 394.347 438.771 389.906L336.24 389.906C336.24 394.347 339.84 397.948 344.281 397.948Z" fill="#DB2777"/><path d="M378.277 301.046C373.714 292.542 366.878 287.717 358.716 280.359 349.167 271.292 344.281 249.74 333.345 253.198 332.981 253.307 332.625 253.442 332.279 253.6 333.515 248.292 336.443 243.529 340.622 240.03L337.587 236.009C334.059 238.91 331.216 242.555 329.263 246.684 328.51 244.114 327.038 241.813 325.021 240.05 320.297 236.17 312.959 237.376 312.959 237.376 312.959 237.376 313.321 244.774 318.126 248.634 320.859 250.664 324.214 251.681 327.615 251.509 327.318 252.786 327.117 254.083 327.012 255.389 326.328 255.427 325.652 255.556 325.001 255.771 312.476 259.651 322.187 279.675 319.453 292.562 317.713 298.705 316.284 304.932 315.17 311.219 318.737 312.347 322.361 313.287 326.027 314.033L326.328 314.033 329.304 314.616 329.887 314.737 333.043 315.28 333.706 315.4 337.124 315.943 337.707 315.943 341.487 316.486 341.869 316.486C355.92 318.243 370.067 319.129 384.228 319.14L384.228 319.14C383.51 312.763 381.484 306.604 378.277 301.046Z" fill="#DB2777"/><path d="M462.212 313.872 461.77 312.847C461.78 313.041 461.78 313.236 461.77 313.43 461.77 313.671 461.669 313.892 461.609 314.134L462.253 313.892Z" fill="#DB2777"/><path d="M460.323 303.78C461.711 306.586 462.216 309.748 461.77 312.847L461.428 314.033C454.972 316.421 448.29 318.145 441.485 319.18 439.595 319.522 437.645 319.823 435.655 320.125L432.358 320.547 429.523 320.929C427.955 321.13 426.346 321.291 424.738 321.452L423.15 321.633 417.119 322.155 416.475 322.155 409.7 322.618 409.7 322.618C402.764 323.02 395.627 323.241 388.229 323.281L386.5 323.281C347.88 323.281 322.167 318.134 311.532 313.993L310.747 313.993C310.988 310.57 311.52 307.173 312.336 303.84 303.309 306.816 298.042 310.294 298.042 314.033 298.042 341.918 312.698 366.525 335.295 381.543L437.705 381.543C460.302 366.525 474.958 341.918 474.958 314.033 474.958 310.254 469.57 306.735 460.323 303.78Z" fill="#DB2777"/><path d="M423.11 277.544C425.098 276.166 427.373 275.259 429.764 274.89 430.276 268.449 425.469 262.811 419.027 262.299 412.586 261.787 406.949 266.594 406.436 273.036 405.925 279.472 410.723 285.106 417.159 285.626 418.206 282.354 420.296 279.515 423.11 277.544Z" fill="#DB2777"/><path d="M466.474 288.883C466.474 295.345 461.236 300.583 454.774 300.583 448.312 300.583 443.073 295.345 443.073 288.883 443.073 282.421 448.312 277.182 454.774 277.182 461.236 277.182 466.474 282.421 466.474 288.883Z" fill="#DB2777"/><path d="M442.671 278.871C443.57 277.772 444.619 276.804 445.787 275.996 446.915 275.208 448.146 274.578 449.446 274.126 461.147 266.225 467.801 269.884 467.882 269.945L468.927 268.216 469.993 266.507C466.546 264.788 462.585 264.409 458.875 265.441 455.77 261.169 451.805 257.594 447.235 254.947L447.516 254.505C449.267 251.812 450.241 248.689 450.331 245.478 450.974 238.904 444.299 232.873 444.299 232.873 442.58 234.255 441.204 236.016 440.279 238.019 439.762 237.3 439.184 236.627 438.55 236.009 431.533 229.073 417.42 229.214 417.42 229.214 416.339 233.965 416.775 238.936 418.667 243.427L418.245 243.427C404.795 242.121 395.125 252.937 395.125 252.937 395.306 254.091 395.609 255.223 396.029 256.314 396.694 256.21 397.367 256.156 398.04 256.153 402.331 256.157 406.435 257.914 409.399 261.018 416.541 256.14 426.286 257.976 431.164 265.119 433.119 267.981 434.069 271.41 433.865 274.87 437.151 275.233 440.236 276.635 442.671 278.871ZM446.39 259.229C449.602 261.225 452.462 263.739 454.854 266.668 452.455 267.619 450.158 268.811 447.999 270.226 448.441 267.406 448.094 264.518 446.993 261.883 446.515 261.085 446.303 260.155 446.39 259.229Z" fill="#DB2777"/><path d="M454.854 304.584C450.395 304.606 446.135 302.736 443.133 299.438 436.935 301.1 433.258 307.473 434.92 313.671 435.143 314.501 435.456 315.303 435.856 316.064 437.645 315.782 439.434 315.521 441.123 315.219 446.804 314.297 452.409 312.953 457.89 311.198 457.992 308.836 457.368 306.5 456.101 304.504 455.658 304.524 455.236 304.584 454.854 304.584Z" fill="#DB2777"/><path d="M416.435 289.586C411.915 289.107 407.824 286.695 405.217 282.972 404.809 282.377 404.446 281.752 404.131 281.103 403.147 281.434 402.213 281.901 401.357 282.49 396.059 286.169 394.746 293.448 398.426 298.746 400.815 302.187 404.864 304.084 409.037 303.72 410.13 302.033 411.544 300.578 413.198 299.438 414.647 298.435 416.259 297.693 417.963 297.246 416.808 294.865 416.282 292.228 416.435 289.586Z" fill="#DB2777"/><path d="M406.705 309.49C406.823 308.871 406.978 308.26 407.167 307.66 403.048 307.431 399.184 305.589 396.411 302.534 390.204 304.207 386.529 310.595 388.202 316.802 388.428 317.641 388.747 318.452 389.154 319.22 395.527 319.22 401.799 318.999 407.891 318.677 406.566 315.808 406.152 312.601 406.705 309.49Z" fill="#DB2777"/><path d="M431.232 306.092C427.036 305.864 423.105 303.967 420.315 300.825 418.572 301.109 416.92 301.798 415.49 302.835 410.388 306.382 408.972 313.312 412.274 318.577 419.089 318.134 425.603 317.491 431.674 316.707 430.303 313.326 430.146 309.575 431.232 306.092Z" fill="#DB2777"/><path d="M433.081 302.071C434.179 300.389 435.593 298.935 437.243 297.789 438.342 297.04 439.531 296.432 440.781 295.98 439.221 292.947 438.698 289.487 439.294 286.129 439.534 284.816 439.939 283.54 440.5 282.329 436.024 277.683 428.63 277.545 423.984 282.021 419.338 286.497 419.2 293.891 423.676 298.537 426.118 301.072 429.574 302.37 433.081 302.071Z" fill="#DB2777"/><path d="M393.295 286.812C390.452 285.933 387.915 284.267 385.977 282.007 380.965 281.716 376.34 284.7 374.538 289.385 377.404 292.32 379.853 295.634 381.816 299.236 382.886 301.24 383.845 303.3 384.691 305.408 385.247 305.439 385.803 305.439 386.359 305.408 388.196 302.601 390.911 300.48 394.079 299.377 392.079 295.481 391.795 290.927 393.295 286.812Z" fill="#DB2777"/><path d="M406.283 263.652C401.768 259.044 394.372 258.969 389.765 263.484 385.157 267.999 385.082 275.394 389.597 280.002 391.121 281.557 393.05 282.656 395.165 283.173 396.206 281.604 397.528 280.241 399.065 279.152 400.214 278.386 401.458 277.771 402.764 277.323 401.71 272.466 403.015 267.397 406.283 263.652Z" fill="#DB2777"/></g></svg>