<svg width="282" height="282" xmlns="http://www.w3.org/2000/svg" xmlns:xlink="http://www.w3.org/1999/xlink" xml:space="preserve" overflow="hidden"><defs><clipPath id="clip0"><rect x="804" y="147" width="282" height="282"/></clipPath></defs><g clip-path="url(#clip0)" transform="translate(-804 -147)"><path d="M995.231 367.312 997.581 340.875 1031.66 340.875 1027.25 367.312 995.231 367.312ZM858.344 340.875 892.419 340.875 894.769 367.312 863.044 367.312 858.344 340.875ZM886.25 264.5 888.6 290.938 849.825 290.938 845.419 264.5 886.25 264.5ZM942.944 208.394C943.825 207.512 944.706 207.512 945 207.512 945.294 207.512 946.469 207.512 947.056 208.394L985.537 246.581 904.463 246.581 942.944 208.394ZM1000.52 302.688 1038.12 302.688 1033.71 329.125 998.463 329.125 1000.52 302.688ZM950.875 329.125 950.875 302.688 988.769 302.688 986.419 329.125 950.875 329.125ZM950.875 340.875 985.537 340.875 983.188 367.312 950.875 367.312 950.875 340.875ZM939.125 340.875 939.125 367.312 906.519 367.312 904.169 340.875 939.125 340.875ZM939.125 290.938 900.35 290.938 898 264.5 939.125 264.5 939.125 290.938ZM950.875 264.5 992 264.5 989.65 290.938 950.875 290.938 950.875 264.5ZM891.537 329.125 856.287 329.125 851.881 302.688 889.481 302.688 891.537 329.125ZM901.231 302.688 939.125 302.688 939.125 329.125 903.287 329.125 901.231 302.688ZM1040.18 290.938 1001.69 290.938 1004.04 264.5 1044.88 264.5 1040.18 290.938ZM1010.21 246.875 1010.21 246.875 959.688 196.056C955.869 192.238 950.581 189.887 945 189.887 939.419 189.887 934.425 191.944 930.606 196.056L880.081 246.581 879.787 246.875 824.562 246.875 846.3 375.244C847.181 380.825 852.175 384.938 857.756 384.938L1031.66 384.938C1037.24 384.938 1042.23 380.825 1043.11 375.244L1065.44 246.875 1010.21 246.875Z" fill="#DB2777"/></g></svg>